<svg xmlns="http://www.w3.org/2000/svg" xml:space="preserve" width="669.26147" height="126.94592" viewBox="0 0 669.26147 126.94592"><defs><clipPath id="a" clipPathUnits="userSpaceOnUse"><path d="M0 112h504V0H0Z"/></clipPath></defs><g clip-path="url(#a)" transform="matrix(1.35493 0 0 -1.35493 -6.81 136.64)"><path d="M0 0h-7.845v-31.21l6.165-.006c.929 0 1.687.765 1.687 1.7z" style="fill:#1d1d1b;fill-opacity:1;fill-rule:nonzero;stroke:none" transform="translate(204.731 88.45)"/><path d="M0 0h-42.336v-3.956h34.537v-6.331l6.117-.002c.929 0 1.686.764 1.686 1.703z" style="fill:#1d1d1b;fill-opacity:1;fill-rule:nonzero;stroke:none" transform="translate(450.33 56.932)"/><path d="M0 0h-40.901v-3.955h33.102v-23.582h6.116a1.7 1.7 0 0 1 1.69 1.702z" style="fill:#1d1d1b;fill-opacity:1;fill-rule:nonzero;stroke:none" transform="translate(498.233 87.46)"/><path d="M0 0h34.946v3.977H1.991v10.375h-7.916V5.958C-5.925 2.666-3.267 0 0 0" style="fill:#1d1d1b;fill-opacity:1;fill-rule:nonzero;stroke:none" transform="translate(169.78 46.635)"/><path d="M0 0h-7.846v-14.569h-4.443L-12.291 0h-7.845v-34.203h-14.198v29.276h10.246v3.917h-18.229l.018-31.165c0-3.294 2.66-5.979 5.926-5.979h2.069l14.168-.004v-3.587l6.164-.008c.927 0 1.687.763 1.687 1.703l-.004 21.524h4.443v-23.219l6.167-.008c.928 0 1.686.763 1.686 1.703z" style="fill:#1d1d1b;fill-opacity:1;fill-rule:nonzero;stroke:none" transform="translate(401.883 88.45)"/><path d="M0 0h7.845L7.78-40.23c0-.937-.758-1.7-1.686-1.7L0-41.922Z" style="fill:#1d1d1b;fill-opacity:1;fill-rule:nonzero;stroke:none" transform="translate(295.482 88.456)"/><path d="M0 0h-14.644l.061 17.525h-7.847V0h-5.21l.062 17.525h-7.846V0h-6.91v-3.952H.004Z" style="fill:#1d1d1b;fill-opacity:1;fill-rule:nonzero;stroke:none" transform="translate(498.969 54.23)"/><path d="M0 0h-4.434v10.492h-7.848v-29.211l6.165-.003c.929 0 1.683.764 1.683 1.701v13.065H0Z" style="fill:#1d1d1b;fill-opacity:1;fill-rule:nonzero;stroke:none" transform="translate(454.795 77.958)"/><path d="M0 0h-7.316c.375.998.588 2.047.588 3.135a8.913 8.913 0 0 1-.545 3.01H0Zm-12.857-24.462c-7.018 0-12.706 2.522-12.706 5.628 0 3.107 5.688 5.626 12.706 5.626 7.017 0 12.706-2.519 12.706-5.626 0-3.106-5.689-5.628-12.706-5.628m-9.461 19.868c-4.231 0-7.661 3.461-7.661 7.729 0 4.269 3.43 7.73 7.661 7.73 4.232 0 7.662-3.461 7.662-7.73 0-4.268-3.43-7.729-7.662-7.729M3.349-12.95l2.817-.004c.929 0 1.687.766 1.687 1.701l-.009 26.105H0v-4.75h-9.855c-2.844 2.82-7.361 4.659-12.463 4.659-8.609 0-15.591-5.206-15.591-11.626 0-6.419 6.982-11.626 15.591-11.626 5.026 0 9.485 1.783 12.337 4.535H0v-7.471c-3.535 1.28-7.995 2.049-12.857 2.049-11.446 0-20.725-4.234-20.725-9.456 0-5.222 9.279-9.454 20.725-9.454 11.446 0 20.725 4.232 20.725 9.454 0 2.227-1.697 4.269-4.519 5.884" style="fill:#1d1d1b;fill-opacity:1;fill-rule:nonzero;stroke:none" transform="translate(147.903 73.599)"/><path d="M433.968 88.427h-21.303v-3.956h21.303zM438.882 82.229H406.96v-3.956h31.922z" style="fill:#1d1d1b;fill-opacity:1;fill-rule:nonzero;stroke:none"/><path d="M0 0c-4.52 0-8.185 1.879-8.185 4.196 0 2.317 3.665 4.195 8.185 4.195 4.519 0 8.186-1.878 8.186-4.195S4.519 0 0 0m0 12.318c-8.895 0-16.104-3.638-16.104-8.122C-16.104-.29-8.895-3.927 0-3.927c8.893 0 16.104 3.637 16.104 8.123 0 4.484-7.211 8.122-16.104 8.122" style="fill:#1d1d1b;fill-opacity:1;fill-rule:nonzero;stroke:none" transform="translate(423.215 64.223)"/><path d="m0 0-.037 3.723h10.533v3.953h-28.878V3.723h10.491V0c0-6.527-5.244-11.817-11.712-11.817v-3.984c6.388 0 12.046 2.463 15.613 6.203 3.559-3.792 9.259-6.203 15.702-6.203v3.984C5.244-11.817 0-6.527 0 0" style="fill:#1d1d1b;fill-opacity:1;fill-rule:nonzero;stroke:none" transform="translate(180.79 79.764)"/><path d="M0 0c-1.01-2.771-1.515-6.322-1.515-10.649 0-4.746.505-8.564 1.515-11.449 1.113-3.074 2.713-4.61 4.801-4.61 2.052 0 3.635 1.536 4.751 4.61 1.04 2.885 1.562 6.703 1.562 11.449 0 4.327-.522 7.878-1.562 10.649-1.15 3-2.734 4.5-4.751 4.5C2.747 4.5 1.146 3 0 0m15.395 2.594c2.364-3.481 3.55-7.919 3.55-13.318 0-5.727-1.186-10.383-3.55-13.972-2.506-3.912-6.019-5.867-10.542-5.867-4.558 0-8.107 1.955-10.648 5.867-2.331 3.589-3.497 8.245-3.497 13.972 0 5.399 1.166 9.837 3.497 13.318C-3.22 6.432.329 8.354 4.853 8.354c4.488 0 8.002-1.922 10.542-5.76" style="fill:#1d1d1b;fill-opacity:1;fill-rule:nonzero;stroke:none" transform="translate(269.385 80.229)"/><path d="M0 0h-4.411l-.003 14.397h-7.846v-41.745l6.167-.006c.927 0 1.686.762 1.686 1.7L-4.41-3.957H0Z" style="fill:#1d1d1b;fill-opacity:1;fill-rule:nonzero;stroke:none" transform="translate(256.972 74.111)"/><path d="M329.911 54.327h-11.927v15.987h11.927zm7.709-4.067v19.976h6.75V46.533l6.167-.008c.928 0 1.688.763 1.688 1.701l-.008 40.209h-7.847V74.192h-6.75v13.24h-7.709V74.283h-11.927v13.149h-7.991l-.003-31.157c0-3.294 2.662-5.979 5.926-5.979z" style="fill:#1d1d1b;fill-opacity:1;fill-rule:nonzero;stroke:none"/><path d="m0 0-.009 17.211h-7.883V.155c0-9.499-4.364-17.202-9.748-17.202v-3.868c5.77 0 10.891 3.311 14.108 8.433 4.011-5.12 10.423-8.433 17.649-8.433v3.868C6.321-17.047 0-9.418 0 0" style="fill:#1d1d1b;fill-opacity:1;fill-rule:nonzero;stroke:none" transform="translate(225.083 71.361)"/><path d="M0 0v8.458L-7.697 19.97h3.216l3.936-6.021a61.542 61.542 0 0 0 2.03-3.379 73.542 73.542 0 0 0 2.18 3.529l3.869 5.871h3.078L2.644 8.458V0Z" style="fill:#1d1d1b;fill-opacity:1;fill-rule:nonzero;stroke:none" transform="translate(121.625 19.773)"/><path d="M0 0v19.97h14.44v-2.356H2.644v-6.117h11.047V9.153H2.644V2.356h12.26V0Z" style="fill:#1d1d1b;fill-opacity:1;fill-rule:nonzero;stroke:none" transform="translate(133.267 19.773)"/><path d="M0 0h2.643v-11.538c0-2.008-.227-3.602-.682-4.782-.453-1.181-1.273-2.142-2.459-2.882-1.185-.739-2.74-1.11-4.665-1.11-1.871 0-3.401.324-4.59.968-1.191.645-2.039 1.577-2.549 2.8-.508 1.221-.762 2.889-.762 5.006V0h2.643v-11.524c0-1.735.16-3.014.483-3.835.322-.824.876-1.456 1.662-1.902.785-.445 1.746-.666 2.881-.666 1.943 0 3.329.439 4.155 1.322.826.879 1.24 2.573 1.24 5.081z" style="fill:#1d1d1b;fill-opacity:1;fill-rule:nonzero;stroke:none" transform="translate(163.532 39.742)"/><path d="M0 0v19.97h2.71L13.2 4.29v15.68h2.534V0h-2.711L2.533 15.692V0Z" style="fill:#1d1d1b;fill-opacity:1;fill-rule:nonzero;stroke:none" transform="translate(169.153 19.773)"/><path d="M0 0v2.344l8.459.012v-7.41C7.161-6.09 5.821-6.869 4.44-7.39a11.896 11.896 0 0 0-4.25-.784c-1.961 0-3.744.42-5.347 1.261-1.603.839-2.812 2.055-3.63 3.643-.817 1.588-1.226 3.365-1.226 5.326 0 1.945.407 3.759 1.22 5.443.812 1.685 1.981 2.935 3.507 3.754 1.526.816 3.284 1.225 5.272 1.225 1.444 0 2.749-.233 3.917-.701 1.166-.468 2.081-1.12 2.744-1.956.664-.836 1.167-1.925 1.512-3.267l-2.383-.655c-.3 1.016-.672 1.816-1.117 2.397-.445.58-1.081 1.047-1.908 1.396-.826.35-1.743.526-2.751.526-1.208 0-2.253-.184-3.133-.553-.882-.367-1.593-.852-2.133-1.45a6.92 6.92 0 0 1-1.26-1.977c-.508-1.234-.762-2.573-.762-4.018 0-1.779.306-3.269.919-4.468.613-1.199 1.505-2.088 2.677-2.67a8.29 8.29 0 0 1 3.733-.871c1.144 0 2.261.22 3.351.66 1.089.44 1.916.91 2.48 1.411V0Z" style="fill:#1d1d1b;fill-opacity:1;fill-rule:nonzero;stroke:none" transform="translate(197.278 27.605)"/><path d="m0 0 2.384.327c.064-1.526.35-2.57.858-3.134.509-.562 1.213-.843 2.112-.843.663 0 1.235.15 1.716.455.482.304.813.717.994 1.24.182.521.273 1.355.273 2.5v13.759h2.643V.695c0-1.672-.202-2.966-.606-3.883a4.318 4.318 0 0 0-1.921-2.098c-.877-.481-1.905-.722-3.086-.722-1.752 0-3.094.503-4.025 1.514C.411-3.486-.036-1.989 0 0" style="fill:#1d1d1b;fill-opacity:1;fill-rule:nonzero;stroke:none" transform="translate(206.89 25.439)"/><path d="M221.244 39.742h2.643v-19.97h-2.643z" style="fill:#1d1d1b;fill-opacity:1;fill-rule:nonzero;stroke:none"/><path d="M0 0v19.97h2.711l10.49-15.68v15.68h2.533V0h-2.711L2.534 15.692V0Z" style="fill:#1d1d1b;fill-opacity:1;fill-rule:nonzero;stroke:none" transform="translate(227.123 19.773)"/><path d="m0 0 2.644-.668C2.09-2.839 1.091-4.493-.348-5.634c-1.438-1.138-3.198-1.709-5.277-1.709-2.153 0-3.903.438-5.253 1.316-1.349.875-2.375 2.144-3.078 3.807-.704 1.661-1.056 3.446-1.056 5.354 0 2.079.397 3.893 1.192 5.442.796 1.548 1.925 2.725 3.393 3.528 1.466.804 3.08 1.205 4.842 1.205 1.998 0 3.679-.508 5.041-1.526 1.361-1.017 2.312-2.447 2.847-4.289L-.3 6.879c-.462 1.453-1.134 2.511-2.015 3.175-.881.664-1.99.995-3.325.995-1.535 0-2.817-.367-3.847-1.105-1.032-.735-1.755-1.723-2.173-2.962a11.924 11.924 0 0 1-.626-3.835c0-1.698.246-3.181.742-4.448.494-1.266 1.264-2.214 2.309-2.841a6.47 6.47 0 0 1 3.391-.94c1.481 0 2.735.427 3.761 1.281C-1.059-2.946-.361-1.681 0 0" style="fill:#1d1d1b;fill-opacity:1;fill-rule:nonzero;stroke:none" transform="translate(266.508 26.773)"/><path d="M0 0v8.458L-7.696 19.97h3.215l3.937-6.021a60.265 60.265 0 0 0 2.028-3.379 76.136 76.136 0 0 0 2.181 3.529l3.869 5.871h3.078L2.644 8.458V0Z" style="fill:#1d1d1b;fill-opacity:1;fill-rule:nonzero;stroke:none" transform="translate(274.964 19.773)"/><path d="M0 0h4.973c.851 0 1.453.031 1.797.094.607.109 1.115.292 1.525.544.409.256.745.625 1.008 1.112.263.484.396 1.047.396 1.683 0 .744-.19 1.39-.573 1.939-.382.551-.91.937-1.587 1.159-.676.223-1.651.333-2.922.333H0Zm0 9.222h4.317c1.172 0 2.011.078 2.52.231.673.2 1.18.531 1.518.995.341.462.512 1.044.512 1.743 0 .663-.158 1.247-.476 1.752a2.426 2.426 0 0 1-1.363 1.034c-.59.187-1.602.281-3.038.281H0ZM-2.644-2.356v19.969h7.493c1.524 0 2.75-.201 3.672-.606a4.738 4.738 0 0 0 2.165-1.866c.522-.84.784-1.719.784-2.637 0-.853-.232-1.657-.696-2.41-.463-.755-1.163-1.364-2.097-1.825 1.207-.355 2.136-.959 2.785-1.813.649-.853.976-1.862.976-3.023a5.84 5.84 0 0 0-.594-2.61c-.395-.804-.883-1.422-1.464-1.859-.581-.436-1.312-.765-2.187-.987-.877-.223-1.95-.333-3.22-.333Z" style="fill:#1d1d1b;fill-opacity:1;fill-rule:nonzero;stroke:none" transform="translate(289.087 22.129)"/><path d="M0 0v19.97h14.439v-2.356H2.643v-6.117h11.048V9.153H2.643V2.356h12.259V0Z" style="fill:#1d1d1b;fill-opacity:1;fill-rule:nonzero;stroke:none" transform="translate(303.82 19.773)"/><path d="M0 0h5.68c1.209 0 2.153.125 2.833.375.682.249 1.2.648 1.553 1.198.354.549.533 1.146.533 1.791 0 .946-.344 1.722-1.031 2.331-.684.607-1.766.911-3.248.911H0Zm-2.643-11.156V8.813h8.854c1.779 0 3.134-.18 4.06-.539.925-.357 1.667-.99 2.219-1.899a5.661 5.661 0 0 0 .834-3.011c0-1.417-.461-2.61-1.378-3.583-.917-.971-2.333-1.589-4.25-1.851.7-.336 1.232-.668 1.595-.995.772-.708 1.502-1.594 2.193-2.657l3.473-5.434h-3.323L8.99-7.003C8.219-5.805 7.583-4.886 7.083-4.25c-.499.635-.946 1.08-1.343 1.334a3.928 3.928 0 0 1-1.204.531c-.301.065-.79.096-1.473.096H0v-8.867z" style="fill:#1d1d1b;fill-opacity:1;fill-rule:nonzero;stroke:none" transform="translate(323.663 30.929)"/><path d="M0 0h2.645v-11.538c0-2.008-.228-3.602-.683-4.782-.454-1.181-1.274-2.142-2.46-2.882-1.184-.739-2.739-1.11-4.664-1.11-1.871 0-3.402.324-4.592.968-1.189.645-2.039 1.577-2.546 2.8-.511 1.221-.763 2.889-.763 5.006V0h2.642v-11.524c0-1.735.161-3.014.483-3.835a3.664 3.664 0 0 1 1.665-1.902c.785-.445 1.744-.666 2.878-.666 1.944 0 3.329.439 4.157 1.322C-.411-15.726 0-14.032 0-11.524z" style="fill:#1d1d1b;fill-opacity:1;fill-rule:nonzero;stroke:none" transform="translate(359.193 39.742)"/><path d="M0 0v19.97h2.712L13.201 4.29v15.68h2.533V0h-2.711L2.535 15.692V0Z" style="fill:#1d1d1b;fill-opacity:1;fill-rule:nonzero;stroke:none" transform="translate(364.815 19.773)"/><path d="M384.044 39.742h2.644v-19.97h-2.644z" style="fill:#1d1d1b;fill-opacity:1;fill-rule:nonzero;stroke:none"/><path d="m0 0-7.735 19.97h2.86L.315 5.461a47.29 47.29 0 0 0 1.049-3.269c.308 1.09.667 2.18 1.076 3.269L7.834 19.97h2.697L2.714 0Z" style="fill:#1d1d1b;fill-opacity:1;fill-rule:nonzero;stroke:none" transform="translate(395.657 19.773)"/><path d="M0 0v19.97h14.44v-2.356H2.642v-6.117h11.049V9.153H2.642V2.356h12.262V0Z" style="fill:#1d1d1b;fill-opacity:1;fill-rule:nonzero;stroke:none" transform="translate(407.219 19.773)"/><path d="M0 0h5.68c1.209 0 2.152.125 2.835.375.679.249 1.198.648 1.552 1.198.354.549.533 1.146.533 1.791 0 .946-.344 1.722-1.029 2.331-.686.607-1.77.911-3.25.911H0Zm-2.642-11.156V8.813h8.853c1.78 0 3.133-.18 4.06-.539.927-.357 1.667-.99 2.22-1.899a5.668 5.668 0 0 0 .832-3.011c0-1.417-.459-2.61-1.376-3.583-.917-.971-2.333-1.589-4.25-1.851.698-.336 1.231-.668 1.594-.995.771-.708 1.502-1.594 2.192-2.657l3.473-5.434h-3.322L8.991-7.003C8.218-5.805 7.584-4.886 7.082-4.25c-.498.635-.944 1.08-1.341 1.334a3.96 3.96 0 0 1-1.204.531c-.3.065-.791.096-1.472.096H0v-8.867z" style="fill:#1d1d1b;fill-opacity:1;fill-rule:nonzero;stroke:none" transform="translate(427.063 30.929)"/><path d="m0 0 2.493.218c.117-.998.393-1.819.824-2.459.43-.641 1.101-1.157 2.01-1.552.907-.395 1.93-.594 3.064-.594 1.009 0 1.899.152 2.672.45.771.3 1.343.71 1.722 1.233.378.521.566 1.091.566 1.711 0 .625-.183 1.172-.544 1.64-.366.467-.964.86-1.8 1.178-.535.21-1.722.533-3.555.975-1.835.441-3.12.855-3.855 1.246-.953.5-1.666 1.12-2.133 1.859-.468.741-.701 1.57-.701 2.488 0 1.007.287 1.95.858 2.825.573.878 1.407 1.542 2.507 1.997 1.098.453 2.32.68 3.665.68 1.479 0 2.785-.237 3.915-.715 1.132-.477 2.001-1.178 2.61-2.104.608-.928.935-1.975.981-3.147l-2.534-.191c-.137 1.262-.598 2.216-1.383 2.86-.785.646-1.947.967-3.481.967-1.599 0-2.763-.293-3.495-.877-.73-.586-1.096-1.293-1.096-2.119 0-.717.259-1.307.776-1.77.511-.464 1.837-.939 3.985-1.425 2.148-.486 3.62-.91 4.42-1.273 1.164-.538 2.021-1.214 2.575-2.038.554-.821.831-1.767.831-2.839 0-1.063-.303-2.064-.913-3.004-.609-.94-1.482-1.672-2.622-2.193-1.139-.523-2.422-.784-3.847-.784-1.808 0-3.324.264-4.545.791-1.22.526-2.18 1.319-2.873 2.376C.401-2.531.035-1.335 0 0" style="fill:#1d1d1b;fill-opacity:1;fill-rule:nonzero;stroke:none" transform="translate(442.232 26.188)"/><path d="M460.795 39.742h2.643v-19.97h-2.643z" style="fill:#1d1d1b;fill-opacity:1;fill-rule:nonzero;stroke:none"/><path d="M0 0v17.614h-6.581v2.356H9.25v-2.356H2.643V0Z" style="fill:#1d1d1b;fill-opacity:1;fill-rule:nonzero;stroke:none" transform="translate(471.784 19.773)"/><path d="M0 0v8.458L-7.697 19.97h3.214l3.937-6.021a61.566 61.566 0 0 0 2.031-3.379c.6 1.044 1.325 2.22 2.179 3.529l3.868 5.871h3.078L2.642 8.458V0Z" style="fill:#1d1d1b;fill-opacity:1;fill-rule:nonzero;stroke:none" transform="translate(487.976 19.773)"/><path d="M0 0c-25.871 0-46.845-20.979-46.845-46.845 0-25.873 20.974-46.847 46.845-46.847 25.872 0 46.845 20.974 46.845 46.847C46.845-20.979 25.872 0 0 0" style="fill:#007fa1;fill-opacity:1;fill-rule:nonzero;stroke:none" transform="translate(51.872 100.846)"/><path d="M0 0c25.159 0 45.556 20.395 45.556 45.553 0 25.156-20.397 45.552-45.556 45.552-25.157 0-45.554-20.396-45.554-45.552C-45.554 20.395-25.157 0 0 0" style="fill:#fff;fill-opacity:1;fill-rule:nonzero;stroke:none" transform="translate(51.872 8.448)"/><path d="M0 0c.784-.794.129-2.073-.34-2.765a7.403 7.403 0 0 0-2.18-2.37c-.263-.198-.546-.042-.703.147a17.08 17.08 0 0 1-2.049 2.303c-.174.137-.174.39.015.583.501.682 1.592 1.244 2.478 1.707C-2.002-.062-.529.46 0 0" style="fill:#007fa1;fill-opacity:1;fill-rule:nonzero;stroke:none" transform="translate(68.367 78.19)"/><path d="M0 0c.742-2.063 3.27-3.326 3.735-3.034 1.233.863 6.357 3.175 7.19 3.567 1.242.558 1.837 1.029.919 1.013-3.889.036-7.95-.41-11.03-1.24C2.026 7.748 17.418 7.814 18.62 8.527c.594.375 3.46 2.137 5.301 3.033.96.402 4.361 1.895 5.906.733.553-.464.913-1.596.945-2.376.044-1.203-.467-2.927-.929-3.921-1.079-2.128-3.865-4.57-5.861-5.61-.321-.181-.478-.615-.368-.94.178-.28.474-.426.777-.384.279.064.782.243 1.097.461-.136-.966-.103-2.157.344-3.193 1.558-4.411 2.318-8.707 1.503-12.807-.628-3.038-3.513-6.382-6.454-6.74 3.088 4.416 3.948 12.529 2.694 17.29-.295 1.278-1.118 2.763-2.516 3.347-.712.196-1.491.192-2.059-.147-2.25-1.444-2.47-4.201-2.784-6.825-.167-1.175-.438-2.323-1.331-3.179-.869-.768-1.517-1.181-3.213-.147-1.275.836-2.58 1.366-4.173 1.375-.957-.063-1.987-.285-2.421-1.131-.071-.16-.094-.373.166-.406 2.32-.018 3.345-.629 4.521-1.945.9-1.15 1.818-2.399 3.438-2.396 1.337-.003 2.48.724 3.171 1.887.909 1.456 1.264 3.125 1.504 4.851.279 2.274.625 2.778 1.094 2.747.281-.034.379-.254.465-.69 1.007-5.104.508-8.196-.306-10.929-1.318-3.883-2.612-6.576-4.542-8.602-.532-.605-1.098-.723-.972-1.037.157-.28.384-.204.628-.132 2.537 1.127 4.392 3.091 6.168 5.388 4.567.355 8.814 2.109 10.638 6.744 1.42 3.714 1.377 6.76.417 11.311-.209 1.464-2.256 6.514-.786 10.113.195.437.661.797 1.204.877 3.036.321 5.133.194 7.735-.089-6.185 9.015-16.562 14.96-28.323 14.96-14.927 0-27.629-9.527-32.354-22.833-1.292-3.861-3.584-12.996 4.935-16.254-.131-2.64 3.825-9.902 11.51-4.973 1.804 1.33 2.056.582-.451-1.339-1.994-1.598-9.561-4.359-12.98 3.766-1.217-.344-3.862.782-4.531 1.781 2.592-16.391 16.752-28.801 33.871-28.801 18.96 0 34.327 15.367 34.327 34.328 0 3.926-.662 7.702-1.873 11.218 0 0-1.985 5.18-.607-1.208 3.068-14.968-6.578-30.646-15.597-34.071-.439.375-3.068 1.756-3.966 2.074 9.729 5.151 12.653 14.002 13.07 18.428.186 2.129-.585 1.335-1.003-.312-5.469-14.448-16.076-16.807-19.436-15.581-5.032 1.78-10.361-1.729-10.543-1.936-1.128-1.731-7.267 2.775-8.385 5.888-.885 2.337-.3 2.526.465 2.53-1.19 2.572-.474 3.035.095 2.494 7.866-7.862 14.88 1.155 15.046 3.758.129 1.486-.188 1.51-.605.785-.625-.878-1.21-1.843-2.077-2.337-3.454 8.512-16.105 6.001-15.5 1.615.126-1.123.145-1.811-.763-2.455-1.252-.811-6.42 4.339-6.856 6.218 2.128 2.568 1.292 6.22 1.01 7.049-.637 1.886-2.931.217-3.77.166-.443-.075-.624 1.596.429 2.697C-9.876-2.592-.408-.117 0 0" style="fill:#007fa1;fill-opacity:1;fill-rule:nonzero;stroke:none" transform="translate(40.565 68.308)"/><path d="M0 0a1.65 1.65 0 0 1-1.903-1.356A1.655 1.655 0 0 1-.547-3.26a1.658 1.658 0 0 1 1.905 1.355A1.654 1.654 0 0 1 0 0" style="fill:#007fa1;fill-opacity:1;fill-rule:nonzero;stroke:none" transform="translate(16.352 37.554)"/><path d="M0 0a1.654 1.654 0 0 0 .547-3.26 1.656 1.656 0 0 0-1.904 1.355A1.65 1.65 0 0 0 0 0" style="fill:#007fa1;fill-opacity:1;fill-rule:nonzero;stroke:none" transform="translate(87.175 37.554)"/><path d="m0 0-.01 5.303a1.959 1.959 0 0 1-1.96 1.954l-3.939.003v1.657h-1.998V7.26l-3.942-.003a1.96 1.96 0 0 1-1.96-1.954L-13.818 0h1.962v5.657h1.976V0h1.973v5.657h1.998V0h1.973v5.657h1.974V0Z" style="fill:#007fa1;fill-opacity:1;fill-rule:nonzero;stroke:none" transform="translate(58.592 9.752)"/><path d="m0 0-3.166-.806L-6.74-4.78l-.306 1.203 1.879 2.043c.351.381.708.745 1.07 1.085-.449.123-.957.283-1.529.479l-2.565.887-.292 1.155L-3.417.185l3.166.804z" style="fill:#007fa1;fill-opacity:1;fill-rule:nonzero;stroke:none" transform="translate(17.034 44.49)"/><path d="m0 0-7.683-.65-.467 5.557.906.075.381-4.536 2.355.198-.357 4.252.901.075.358-4.251L-.99.937l-.398 4.719.907.076z" style="fill:#007fa1;fill-opacity:1;fill-rule:nonzero;stroke:none" transform="translate(16.133 48.188)"/><path d="m0 0 .093 1.019L4.531.605C5.302.535 5.908.39 6.345.174c.439-.217.78-.566 1.02-1.046.244-.483.329-1.096.262-1.834-.067-.718-.247-1.297-.535-1.731-.29-.436-.68-.73-1.168-.881-.487-.153-1.139-.19-1.952-.114l-4.436.411.092 1.014 4.434-.41c.667-.059 1.162-.044 1.492.052.324.093.59.284.788.569.2.286.32.649.36 1.085.069.749-.05 1.294-.36 1.643-.311.351-.946.571-1.91.658z" style="fill:#007fa1;fill-opacity:1;fill-rule:nonzero;stroke:none" transform="translate(8.436 60.062)"/><path d="m0 0-7.412 2.132.29 1.007 6.938 2.22-5.817 1.675.269.939 7.413-2.132-.292-1.007-6.944-2.218L.27.942Z" style="fill:#007fa1;fill-opacity:1;fill-rule:nonzero;stroke:none" transform="translate(16.33 61.04)"/><path d="m0 0-.808.41L.67 3.326l2.55-1.301A5.733 5.733 0 0 0 3.319.233a4.536 4.536 0 0 0-.474-1.6c-.344-.674-.801-1.216-1.37-1.617a3.205 3.205 0 0 0-1.89-.613 4.48 4.48 0 0 0-2.048.512 4.76 4.76 0 0 0-1.659 1.376c-.436.573-.662 1.193-.677 1.862-.014.669.154 1.347.503 2.028.254.498.561.908.927 1.226.366.32.75.521 1.155.602.403.084.866.063 1.389-.051l-.192-.937c-.403.077-.743.089-1.022.038-.278-.051-.55-.189-.815-.413a2.692 2.692 0 0 1-.661-.853c-.213-.418-.334-.809-.36-1.176-.03-.368.014-.698.125-.989.112-.291.264-.551.459-.779a3.992 3.992 0 0 1 1.249-.968c.611-.311 1.179-.467 1.699-.465.521 0 .981.151 1.389.452.404.301.722.678.954 1.132.202.393.319.817.359 1.268.039.451.022.819-.051 1.101l-1.28.653z" style="fill:#007fa1;fill-opacity:1;fill-rule:nonzero;stroke:none" transform="translate(17.106 71.949)"/><path d="m0 0 .447.815c.489-.333.877-.484 1.17-.456.291.027.54.183.747.462.153.203.237.416.255.635a.905.905 0 0 1-.156.593c-.119.177-.356.399-.712.662l-4.264 3.17.609.819 4.217-3.136c.52-.385.873-.745 1.065-1.083.191-.339.261-.695.207-1.076-.053-.384-.214-.758-.488-1.124-.403-.543-.869-.843-1.395-.898C1.174-.674.607-.467 0 0" style="fill:#007fa1;fill-opacity:1;fill-rule:nonzero;stroke:none" transform="translate(19.706 74.897)"/><path d="m0 0-5.733 5.16.683.757L.682.76Z" style="fill:#007fa1;fill-opacity:1;fill-rule:nonzero;stroke:none" transform="translate(24.7 77.758)"/><path d="m0 0-5.04 5.837.792.684 7.024-1.934-3.957 4.581.74.639L4.6 3.972l-.794-.685-7.024 1.939L.739.641Z" style="fill:#007fa1;fill-opacity:1;fill-rule:nonzero;stroke:none" transform="translate(25.97 79.32)"/><path d="m0 0 1.032.222c.176-.848.116-1.592-.188-2.231C.541-2.653.03-3.149-.689-3.506c-.745-.369-1.428-.515-2.045-.442-.617.073-1.189.334-1.718.793a5.222 5.222 0 0 0-1.28 1.67c-.355.721-.529 1.418-.519 2.09.011.671.2 1.272.572 1.801a3.84 3.84 0 0 0 1.47 1.246c.691.342 1.36.453 2.005.333.645-.117 1.22-.452 1.72-.998l-.795-.656c-.408.422-.824.674-1.242.755-.418.075-.858.001-1.32-.228-.531-.26-.911-.607-1.145-1.038A2.26 2.26 0 0 1-5.23.422c.067-.5.212-.98.438-1.435.292-.589.632-1.058 1.019-1.414.389-.354.815-.55 1.285-.587.469-.039.914.045 1.335.254.513.255.873.616 1.083 1.085C.14-1.202.164-.645 0 0" style="fill:#007fa1;fill-opacity:1;fill-rule:nonzero;stroke:none" transform="translate(36.896 89.881)"/><path d="m0 0-.958 3.122-4.144 3.383 1.188.364 2.135-1.779c.397-.332.772-.673 1.132-1.018.102.455.238.97.405 1.549l.765 2.607 1.137.347L.019 3.424.974.299Z" style="fill:#007fa1;fill-opacity:1;fill-rule:nonzero;stroke:none" transform="translate(40.734 88.341)"/><path d="m0 0 1.905.249c.325.042.554.085.683.128.227.072.413.168.557.285.144.117.252.275.327.476.078.198.101.42.069.662a1.3 1.3 0 0 1-.316.717 1.18 1.18 0 0 1-.666.362c-.271.051-.648.044-1.136-.018l-1.769-.235Zm-.465 3.526 1.653.221c.449.058.767.13.955.214.246.112.424.264.53.458.108.195.142.426.108.695a1.248 1.248 0 0 1-.27.645.917.917 0 0 1-.574.326c-.236.042-.627.027-1.178-.044L-.768 5.84Zm-.428-4.564-1.005 7.646 2.868.378c.582.077 1.061.061 1.436-.047.374-.108.68-.309.924-.608.242-.292.387-.614.431-.968a1.765 1.765 0 0 0-.143-.957c-.14-.313-.377-.58-.712-.804.48-.076.866-.26 1.158-.554.291-.295.466-.665.526-1.11A2.262 2.262 0 0 0 4.495.911C4.384.584 4.229.32 4.026.125a2.34 2.34 0 0 0-.787-.489 5.113 5.113 0 0 0-1.217-.289Z" style="fill:#007fa1;fill-opacity:1;fill-rule:nonzero;stroke:none" transform="translate(45.225 90.45)"/><path d="m0 0 .29 7.708 5.575-.211-.035-.91-4.553.171-.088-2.361 4.263-.162-.035-.902-4.264.162L1.055.87l4.73-.18-.034-.907Z" style="fill:#007fa1;fill-opacity:1;fill-rule:nonzero;stroke:none" transform="translate(50.516 90.168)"/><path d="m0 0 2.137-.484c.457-.101.822-.135 1.1-.1.28.034.506.142.686.322.181.174.3.384.354.625.08.355.018.679-.187.966-.207.288-.589.494-1.146.622l-2.382.538Zm-1.948-3.978 1.703 7.524L3.09 2.79c.669-.151 1.164-.334 1.481-.547.321-.213.545-.515.677-.908.131-.386.149-.788.057-1.202-.121-.536-.396-.946-.824-1.234-.43-.288-1.017-.4-1.758-.336a2.67 2.67 0 0 0 .513-.509c.23-.332.432-.728.6-1.186l.846-2.347-1.251.287-.641 1.787c-.189.518-.351.917-.486 1.201-.133.282-.264.487-.39.618a1.545 1.545 0 0 1-.41.301 2.58 2.58 0 0 1-.546.161l-1.154.261-.756-3.339z" style="fill:#007fa1;fill-opacity:1;fill-rule:nonzero;stroke:none" transform="translate(58.849 93.85)"/><path d="m0 0 .907-.469-2.05-3.958c-.357-.689-.716-1.196-1.082-1.519-.365-.324-.817-.507-1.353-.552-.538-.041-1.139.105-1.798.447-.643.333-1.11.713-1.403 1.148a2.122 2.122 0 0 0-.378 1.411c.043.513.251 1.127.628 1.855l2.047 3.953.908-.466-2.046-3.953c-.308-.594-.479-1.06-.515-1.401a1.43 1.43 0 0 1 .232-.949c.19-.292.48-.536.87-.739.666-.344 1.219-.439 1.659-.284.441.156.884.663 1.328 1.522z" style="fill:#007fa1;fill-opacity:1;fill-rule:nonzero;stroke:none" transform="translate(73.764 92.001)"/><path d="m0 0 4.72 6.099.827-.64-.502-7.269L8.75 2.979l.773-.6-4.718-6.098-.828.638.505 7.274L.774-.6Z" style="fill:#007fa1;fill-opacity:1;fill-rule:nonzero;stroke:none" transform="translate(71.52 84.434)"/><path d="m0 0 5.449 5.456.722-.721L.722-.721Z" style="fill:#007fa1;fill-opacity:1;fill-rule:nonzero;stroke:none" transform="translate(77.034 79.881)"/><path d="m0 0 4.164 7.146.688-.863-3.127-5.061A16.078 16.078 0 0 0 .991.12c.403.166.818.323 1.246.461l5.677 1.867.652-.814L.655-.818Z" style="fill:#007fa1;fill-opacity:1;fill-rule:nonzero;stroke:none" transform="translate(79.748 76.935)"/><path d="m0 0 6.731 3.762 2.721-4.867-.793-.442-2.223 3.976-2.061-1.156 2.08-3.722-.789-.442L3.584.833 1.294-.446l2.309-4.132-.794-.446Z" style="fill:#007fa1;fill-opacity:1;fill-rule:nonzero;stroke:none" transform="translate(82.066 73.97)"/><path d="m0 0 .698-2.083c.148-.441.31-.772.486-.99.175-.219.384-.358.629-.419.243-.062.484-.054.719.024.346.115.59.337.727.663.139.324.118.759-.065 1.304L2.418.811Zm-4.41-.405 7.313 2.454 1.086-3.241c.219-.654.32-1.171.303-1.553a1.737 1.737 0 0 0-.424-1.047 2.186 2.186 0 0 0-.999-.674c-.52-.172-1.011-.154-1.481.065-.47.215-.87.658-1.201 1.328a2.527 2.527 0 0 0-.169-.705 5.37 5.37 0 0 0-.703-1.13l-1.563-1.94-.407 1.215 1.196 1.48c.345.428.602.773.773 1.035.17.263.279.481.324.655.043.18.06.346.048.509-.015.117-.064.3-.148.55L-.838-.282l-3.246-1.091z" style="fill:#007fa1;fill-opacity:1;fill-rule:nonzero;stroke:none" transform="translate(89.546 68.77)"/><path d="m0 0 .218-.94c-.377-.1-.678-.249-.899-.447-.221-.199-.383-.483-.488-.851a2.995 2.995 0 0 1-.064-1.204c.054-.384.158-.718.315-.998.155-.279.341-.477.563-.595a1.13 1.13 0 0 1 .683-.124c.24.033.439.131.6.293.159.168.277.417.355.752.05.216.113.689.184 1.412.072.724.161 1.239.272 1.543.141.389.339.692.599.913.257.216.563.351.914.399a1.95 1.95 0 0 0 1.125-.177c.368-.175.666-.458.898-.854.231-.397.383-.853.454-1.366.078-.567.057-1.079-.066-1.537a2.192 2.192 0 0 0-.664-1.107 2.36 2.36 0 0 0-1.153-.544l-.208.959c.474.119.816.348 1.02.68.206.335.266.797.186 1.381-.086.615-.257 1.044-.522 1.295-.262.245-.552.35-.868.305a.877.877 0 0 1-.636-.392c-.151-.217-.26-.753-.333-1.597-.071-.851-.157-1.435-.254-1.761-.144-.473-.357-.835-.642-1.092a1.914 1.914 0 0 0-1.044-.467 2.101 2.101 0 0 0-1.195.188 2.34 2.34 0 0 0-.979.888c-.262.41-.427.885-.502 1.432-.098.692-.077 1.283.061 1.777.137.497.389.904.756 1.225C-.946-.289-.507-.083 0 0" style="fill:#007fa1;fill-opacity:1;fill-rule:nonzero;stroke:none" transform="translate(89.654 62.411)"/><path d="m0 0 7.711.153.02-1.022L.02-1.022Z" style="fill:#007fa1;fill-opacity:1;fill-rule:nonzero;stroke:none" transform="translate(87.954 55.211)"/><path d="m0 0 6.774-.605.227 2.532.905-.081-.541-6.088-.907.077.227 2.547-6.776.599Z" style="fill:#007fa1;fill-opacity:1;fill-rule:nonzero;stroke:none" transform="translate(87.872 51.25)"/><path d="m0 0 3.162-.814L8.209.959l-.31-1.201-2.629-.893c-.49-.165-.978-.312-1.461-.436.334-.324.704-.709 1.112-1.156l1.822-2.01-.295-1.152L2.91-1.801l-3.164.813z" style="fill:#007fa1;fill-opacity:1;fill-rule:nonzero;stroke:none" transform="translate(86.981 45.545)"/></g></svg>